<svg width="32" height="32" viewBox="0 0 32 32" fill="none" xmlns="http://www.w3.org/2000/svg">
<g clip-path="url(#clip0)">
<path d="M31.1028 20.9925C31.1028 23.0016 30.5776 24.4276 29.7584 25.467C28.9313 26.5165 27.7418 27.2511 26.2822 27.7577C23.3206 28.7859 19.5103 28.7956 16.0998 28.7956C12.6905 28.7956 8.82725 28.7862 5.81316 27.7563C4.32618 27.2482 3.11166 26.5116 2.26715 25.4605C1.43183 24.4208 0.896749 22.9971 0.896749 20.9925C0.896749 17.2445 1.70404 12.6828 4.00516 9.08874C6.27215 5.54802 10.0181 2.88955 16.0998 2.88955C21.8645 2.88955 25.569 5.55276 27.871 9.1208C30.2022 12.7339 31.1028 17.3007 31.1028 20.9925Z" fill="#FBC546" stroke="black" stroke-width="1.7935"/>
<path fill-rule="evenodd" clip-rule="evenodd" d="M20.1717 22.1276C20.182 22.1369 20.1922 22.1472 20.2024 22.1574L24.4115 27.3011C24.8101 27.4007 21.3227 27.8989 18.4332 27.8989C18.4332 27.8989 20.0557 23.717 20.164 22.1199L20.1717 22.1276Z" fill="#E59A10"/>
<path d="M9.53825 28.2511L9.53891 28.2518L9.53938 28.2523L9.54005 28.2529L9.53825 28.2511ZM9.53825 28.2511C9.15211 27.865 8.95467 27.705 8.79495 27.5757C8.78064 27.5641 8.76664 27.5527 8.75283 27.5415C8.53018 27.3603 8.35442 27.2019 8.04715 26.8178C6.87172 25.3486 7.25062 23.761 7.77882 22.7166C8.04522 22.1898 8.36902 21.7519 8.62044 21.4497C8.74747 21.297 8.85934 21.1749 8.94136 21.0893C8.98246 21.0463 9.01629 21.0123 9.04107 20.9878C9.05346 20.9756 9.06361 20.9657 9.07129 20.9583L9.08095 20.9491L9.08434 20.9459L9.08567 20.9446L9.08624 20.9441C9.0865 20.9439 9.08675 20.9436 9.70064 21.5973L9.08675 20.9436L9.70027 20.3674L10.3141 20.9433L11.5526 22.1049M9.53825 28.2511L11.5526 22.1049M11.5526 22.1049L13.3015 20.356L13.9356 20.9901L11.5526 22.1049Z" fill="#FBC546" stroke="#9D6E17" stroke-width="1.7935" stroke-linecap="round"/>
<path fill-rule="evenodd" clip-rule="evenodd" d="M10.498 17.4929C11.2897 17.4929 12.0482 17.1781 12.6079 16.6184C13.1675 16.0587 13.4824 15.3003 13.4824 14.5085C13.4824 13.948 13.4824 13.361 13.4824 12.8005C13.4824 11.1514 12.1455 9.81445 10.4963 9.81445H10.4946C9.70287 9.81445 8.94441 10.1293 8.38474 10.6889C7.82507 11.2486 7.51025 12.0071 7.51025 12.7988C7.51025 13.3593 7.51025 13.9463 7.51025 14.5068C7.51025 16.156 8.84715 17.4929 10.4963 17.4929H10.498V17.4929Z" fill="white"/>
<path fill-rule="evenodd" clip-rule="evenodd" d="M9.21661 12.3739C9.21661 11.9217 9.39663 11.4875 9.71656 11.1676C10.0365 10.8476 10.4708 10.6676 10.9229 10.6676C11.3751 10.6676 11.8094 10.8476 12.1293 11.1676C12.4492 11.4875 12.6292 11.9217 12.6292 12.3739C12.6292 13.1725 12.6292 14.1212 12.6292 14.9189C12.6292 15.3719 12.4492 15.8053 12.1293 16.1261C11.8094 16.446 11.3751 16.6252 10.9229 16.6252C10.4708 16.6252 10.0365 16.446 9.71656 16.1261C9.39663 15.8053 9.21661 15.3719 9.21661 14.9189C9.21661 14.1212 9.21661 13.1725 9.21661 12.3739Z" fill="black"/>
<path fill-rule="evenodd" clip-rule="evenodd" d="M21.5857 17.4929C20.7939 17.4929 20.0355 17.1781 19.4758 16.6184C18.9161 16.0587 18.6013 15.3003 18.6013 14.5085C18.6013 13.948 18.6013 13.361 18.6013 12.8005C18.6013 11.1514 19.9382 9.81445 21.5874 9.81445H21.5891C22.3808 9.81445 23.1393 10.1293 23.6989 10.6889C24.2586 11.2486 24.5734 12.0071 24.5734 12.7988C24.5734 13.3593 24.5734 13.9463 24.5734 14.5068C24.5734 16.156 23.2365 17.4929 21.5874 17.4929H21.5857Z" fill="white"/>
<path fill-rule="evenodd" clip-rule="evenodd" d="M22.8671 12.3739C22.8671 11.9217 22.6871 11.4875 22.3671 11.1676C22.0472 10.8476 21.613 10.6676 21.1608 10.6676C20.7086 10.6676 20.2744 10.8476 19.9544 11.1676C19.6345 11.4875 19.4545 11.9217 19.4545 12.3739C19.4545 13.1725 19.4545 14.1212 19.4545 14.9189C19.4545 15.3719 19.6345 15.8053 19.9544 16.1261C20.2744 16.446 20.7086 16.6252 21.1608 16.6252C21.613 16.6252 22.0472 16.446 22.3671 16.1261C22.6871 15.8053 22.8671 15.3719 22.8671 14.9189C22.8671 14.1212 22.8671 13.1725 22.8671 12.3739Z" fill="black"/>
</g>
<defs>
<clipPath id="clip0">
<rect width="32" height="32" fill="white"/>
</clipPath>
</defs>
</svg>
