<svg width="32" height="32" viewBox="0 0 32 32" fill="none" xmlns="http://www.w3.org/2000/svg">
<path d="M31.1028 20.9925C31.1028 23.0016 30.5776 24.4276 29.7584 25.467C28.9313 26.5165 27.7418 27.251 26.2822 27.7577C23.3206 28.7858 19.5103 28.7956 16.0998 28.7956C12.6905 28.7956 8.82725 28.7862 5.81316 27.7563C4.32618 27.2482 3.11166 26.5115 2.26715 25.4604C1.43183 24.4208 0.896749 22.997 0.896749 20.9925C0.896749 17.2483 1.70245 13.3712 3.95966 10.4486C6.18461 7.56779 9.92418 5.48012 16.0998 5.48012C21.9585 5.48012 25.6574 7.57592 27.9167 10.4805C30.2055 13.4228 31.1028 17.3072 31.1028 20.9925Z" fill="#FBC546" stroke="black" stroke-width="1.7935"/>
<path fill-rule="evenodd" clip-rule="evenodd" d="M19.9725 22.1276C19.9827 22.1369 19.993 22.1472 20.0032 22.1574L24.2123 27.3011C24.6108 27.4007 21.1235 27.8989 18.2339 27.8989C18.2339 27.8989 19.8565 23.717 19.9648 22.1199L19.9725 22.1276Z" fill="#E59A10"/>
<path fill-rule="evenodd" clip-rule="evenodd" d="M10.62 23.1535H9.74298C9.44693 23.1535 9.17307 23.0008 9.01694 22.7491C8.86167 22.4974 8.84801 22.1835 8.98025 21.919C9.30275 21.2723 9.71568 20.4464 10.1243 19.63C11.1362 17.6063 13.2042 16.3282 15.466 16.3282C15.8473 16.3282 16.2346 16.3282 16.616 16.3282C18.8777 16.3282 20.9458 17.6063 21.9576 19.63C22.3663 20.4464 22.7792 21.2723 23.1017 21.919C23.234 22.1835 23.2203 22.4974 23.065 22.7491C22.9089 23.0008 22.635 23.1535 22.339 23.1535H21.4619C20.2863 21.5777 11.7957 21.5777 10.62 23.1535V23.1535Z" fill="#722245"/>
<path fill-rule="evenodd" clip-rule="evenodd" d="M16.3638 20.5941C18.4165 20.5941 20.2891 21.5778 21.4648 23.1536H10.6229C11.7985 21.5778 13.6712 20.5941 15.7239 20.5941H16.3638Z" fill="#CA3B8F"/>
<path d="M8.94035 29.4468L8.94102 29.4475L8.94149 29.4479L8.94215 29.4486L9.57558 28.8138C11.2861 30.5244 14.0615 30.5244 15.7721 28.8138L8.94035 29.4468ZM8.94035 29.4468C8.55421 29.0607 8.35677 28.9007 8.19705 28.7713C8.18274 28.7597 8.16874 28.7484 8.15493 28.7372C7.93228 28.5559 7.75652 28.3976 7.44925 28.0135C6.27382 26.5443 6.65272 24.9567 7.18092 23.9123C7.44732 23.3855 7.77112 22.9476 8.02254 22.6453C8.14957 22.4926 8.26144 22.3706 8.34347 22.2849C8.38456 22.242 8.41839 22.208 8.44317 22.1835C8.45556 22.1713 8.46571 22.1614 8.47339 22.154L8.48305 22.1448L8.48644 22.1416L8.48777 22.1403L8.48834 22.1398C8.4886 22.1395 8.48885 22.1393 9.10275 22.793M8.94035 29.4468L9.10275 22.793M9.10275 22.793L8.48885 22.1393L9.10238 21.5631L9.71625 22.1389L10.9547 23.3006M9.10275 22.793L10.9547 23.3006M10.9547 23.3006L12.7036 21.5517L13.3377 22.1858L10.9547 23.3006Z" fill="#FBC546" stroke="#9D6E17" stroke-width="1.7935" stroke-linecap="round"/>
<path fill-rule="evenodd" clip-rule="evenodd" d="M12.2477 13.006L8.83507 14.7123C8.41361 14.9221 8.24298 15.4357 8.4537 15.8563C8.66358 16.2778 9.17718 16.4484 9.59779 16.2377L13.0104 14.5314C13.4319 14.3215 13.6025 13.8079 13.3918 13.3873C13.1819 12.9659 12.6683 12.7952 12.2477 13.006Z" fill="black"/>
<path fill-rule="evenodd" clip-rule="evenodd" d="M19.073 14.5314L22.4856 16.2377C22.9062 16.4484 23.4198 16.2778 23.6297 15.8563C23.8404 15.4357 23.6698 14.9221 23.2483 14.7123L19.8357 13.006C19.4151 12.7952 18.9015 12.9659 18.6916 13.3873C18.4809 13.8079 18.6515 14.3215 19.073 14.5314Z" fill="black"/>
</svg>
