<svg width="32" height="32" viewBox="0 0 32 32" fill="none" xmlns="http://www.w3.org/2000/svg">
<g clip-path="url(#clip0)">
<path d="M0.906309 21.067L0.906598 21.0556V21.0441C0.906598 17.2708 1.71485 12.6784 4.01841 9.06049C6.28771 5.49636 10.0357 2.82264 16.1191 2.82264C21.8852 2.82264 25.5917 5.50103 27.8962 9.09276C30.2297 12.7298 31.1314 17.3273 31.1314 21.0441C31.1314 22.7166 30.6256 23.9956 29.7989 24.9996C28.9595 26.019 27.7477 26.8041 26.2708 27.394C23.2996 28.581 19.4622 28.8984 16.1191 28.8984C15.98 28.8984 15.8402 28.8984 15.6996 28.8985C12.3765 28.9003 8.65277 28.9022 5.73165 27.9325C4.23193 27.4346 3.01805 26.7019 2.18813 25.643C1.36728 24.5957 0.853787 23.1424 0.906309 21.067Z" fill="#FBC546" stroke="black" stroke-width="1.80528"/>
<path fill-rule="evenodd" clip-rule="evenodd" d="M10.4291 18.274C11.226 18.274 11.9894 17.9572 12.5528 17.3938C13.1161 16.8305 13.433 16.067 13.433 15.2701C13.433 14.7059 13.433 14.1151 13.433 13.5509C13.433 11.8909 12.0873 10.5452 10.4274 10.5452H10.4256C9.6287 10.5452 8.86527 10.8621 8.30192 11.4254C7.73857 11.9888 7.42169 12.7522 7.42169 13.5491C7.42169 14.1133 7.42169 14.7042 7.42169 15.2684C7.42169 16.9284 8.76737 18.274 10.4274 18.274H10.4291V18.274Z" fill="white"/>
<path fill-rule="evenodd" clip-rule="evenodd" d="M9.13922 13.1215C9.13922 12.6663 9.32042 12.2292 9.64245 11.9072C9.96449 11.5852 10.4016 11.404 10.8567 11.404C11.3119 11.404 11.749 11.5852 12.071 11.9072C12.3931 12.2292 12.5743 12.6663 12.5743 13.1215C12.5743 13.9253 12.5743 14.8802 12.5743 15.6832C12.5743 16.1392 12.3931 16.5754 12.071 16.8983C11.749 17.2203 11.3119 17.4007 10.8567 17.4007C10.4016 17.4007 9.96449 17.2203 9.64245 16.8983C9.32042 16.5754 9.13922 16.1392 9.13922 15.6832C9.13922 14.8802 9.13922 13.9253 9.13922 13.1215Z" fill="black"/>
<path fill-rule="evenodd" clip-rule="evenodd" d="M21.5895 18.274C20.7926 18.274 20.0291 17.9572 19.4658 17.3938C18.9025 16.8305 18.5856 16.067 18.5856 15.2701C18.5856 14.7059 18.5856 14.1151 18.5856 13.5509C18.5856 11.8909 19.9312 10.5452 21.5912 10.5452H21.5929C22.3899 10.5452 23.1533 10.8621 23.7167 11.4254C24.28 11.9888 24.5969 12.7522 24.5969 13.5492C24.5969 14.1134 24.5969 14.7042 24.5969 15.2684C24.5969 16.9284 23.2512 18.274 21.5912 18.274H21.5895V18.274Z" fill="white"/>
<path fill-rule="evenodd" clip-rule="evenodd" d="M22.8794 13.1215C22.8794 12.6663 22.6982 12.2292 22.3761 11.9072C22.0541 11.5852 21.617 11.404 21.1619 11.404C20.7067 11.404 20.2696 11.5852 19.9476 11.9072C19.6255 12.2292 19.4443 12.6663 19.4443 13.1215C19.4443 13.9253 19.4443 14.8802 19.4443 15.6832C19.4443 16.1392 19.6255 16.5754 19.9476 16.8983C20.2696 17.2203 20.7067 17.4007 21.1619 17.4007C21.617 17.4007 22.0541 17.2203 22.3761 16.8983C22.6982 16.5754 22.8794 16.1392 22.8794 15.6832C22.8794 14.8802 22.8794 13.9253 22.8794 13.1215Z" fill="black"/>
<path d="M9.13922 19.9915C9.13922 19.9915 9.57976 20.4321 10.1457 20.998C11.7009 22.5532 13.81 23.4266 16.0093 23.4266C18.2086 23.4266 20.3177 22.5532 21.8729 20.998C22.4388 20.4321 22.8794 19.9915 22.8794 19.9915" stroke="#593604" stroke-width="1.49186" stroke-miterlimit="1.5" stroke-linecap="round"/>
</g>
<defs>
<clipPath id="clip0">
<rect width="32" height="32" fill="white"/>
</clipPath>
</defs>
</svg>